<svg width="24" height="24" viewBox="0 0 24 24" fill="none" xmlns="http://www.w3.org/2000/svg">
<g clip-path="url(#clip0_434_1783)">
<path d="M11.999 7.47258C13.7087 7.47258 15.0995 6.08166 15.0995 4.37203C15.0995 2.66241 13.7086 1.27148 11.999 1.27148C10.2893 1.27148 8.89844 2.66241 8.89844 4.37203C8.89844 6.08166 10.2893 7.47258 11.999 7.47258Z" fill="#1053D4"/>
<path d="M6.99845 14.9404H16.9988C17.4122 14.9404 17.7473 14.6053 17.7473 14.192C17.7473 11.0221 15.1684 8.44336 11.9987 8.44336C8.82888 8.44336 6.25 11.0221 6.25 14.192C6.25 14.6053 6.58511 14.9404 6.99845 14.9404Z" fill="#1053D4"/>
<path d="M15.0219 17.8133L13.3985 17.5774L12.6725 16.1064C12.3984 15.5509 11.6042 15.5513 11.3302 16.1064L10.6042 17.5774L8.98086 17.8133C8.36787 17.9024 8.12276 18.6578 8.56606 19.0899L9.7407 20.235L9.46339 21.8518C9.35867 22.4623 10.0014 22.9288 10.5493 22.6408L12.0013 21.8775L13.4533 22.6408C13.9969 22.9265 14.6448 22.4669 14.5393 21.8518L14.262 20.235L15.4366 19.0899C15.8802 18.6575 15.6345 17.9024 15.0219 17.8133Z" fill="#1053D4"/>
<path d="M6.68201 17.8133L5.05863 17.5774L4.33263 16.1064C4.05851 15.551 3.2643 15.5513 2.99032 16.1064L2.26437 17.5774L0.640992 17.8133C0.0280075 17.9024 -0.217055 18.6578 0.226195 19.0899L1.40084 20.2349L1.12352 21.8517C1.0188 22.4623 1.66151 22.9288 2.20948 22.6407L3.66148 21.8774L5.11348 22.6407C5.65699 22.9265 6.30495 22.4668 6.19943 21.8517L5.92212 20.2349L7.0968 19.0899C7.54038 18.6575 7.29462 17.9023 6.68201 17.8133Z" fill="#1053D4"/>
<path d="M23.3597 17.8134L21.7364 17.5775L21.0104 16.1065C20.7856 15.6508 20.2893 15.6893 20.3393 15.6893C20.0544 15.6893 19.7942 15.851 19.6681 16.1065L18.9421 17.5775L17.3187 17.8134C16.7057 17.9025 16.4607 18.6579 16.9039 19.09L18.0787 20.235L17.8014 21.8518C17.6966 22.4624 18.3393 22.9289 18.8873 22.6408L20.3393 21.8775L21.7913 22.6408C22.3348 22.9266 22.9828 22.4669 22.8773 21.8518L22.5999 20.235L23.7746 19.09C24.2181 18.6577 23.9724 17.9024 23.3597 17.8134Z" fill="#1053D4"/>
</g>
<defs>
<clipPath id="clip0_434_1783">
<rect width="24" height="24" fill="white"/>
</clipPath>
</defs>
</svg>
