<svg width="22" height="22" viewBox="0 0 22 22" fill="none" xmlns="http://www.w3.org/2000/svg">
<g clip-path="url(#clip0_434_1064)">
<path d="M12.4094 11.6875H15.8125C17.2712 11.6875 18.6701 11.108 19.7016 10.0766C20.733 9.04514 21.3125 7.64619 21.3125 6.1875C21.3125 4.72881 20.733 3.32986 19.7016 2.29841C18.6701 1.26696 17.2712 0.6875 15.8125 0.6875H5.84375C5.29674 0.6875 4.77214 0.904798 4.38534 1.29159C3.99855 1.67839 3.78125 2.20299 3.78125 2.75C3.78125 3.29701 3.99855 3.82161 4.38534 4.20841C4.77214 4.5952 5.29674 4.8125 5.84375 4.8125H7.90625C8.45326 4.8125 8.97786 4.5952 9.36466 4.20841C9.75145 3.82161 9.96875 3.29701 9.96875 2.75V2.0625H15.8125C16.9065 2.0625 17.9557 2.4971 18.7293 3.27068C19.5029 4.04427 19.9375 5.09348 19.9375 6.1875C19.9375 7.28152 19.5029 8.33073 18.7293 9.10432C17.9557 9.8779 16.9065 10.3125 15.8125 10.3125H12.9044C13.0097 9.86177 13.0628 9.40039 13.0625 8.9375V7.5625C13.0625 7.38016 12.9901 7.2053 12.8611 7.07636C12.7322 6.94743 12.5573 6.875 12.375 6.875H1.375C1.19266 6.875 1.0178 6.94743 0.888864 7.07636C0.759933 7.2053 0.6875 7.38016 0.6875 7.5625V8.9375C0.692802 9.90918 0.928413 10.8658 1.375 11.7287C0.937111 12.3125 0.696328 13.0204 0.6875 13.75C0.6875 14.6617 1.04966 15.536 1.69432 16.1807C2.01352 16.4999 2.39247 16.7531 2.80953 16.9258C3.22658 17.0986 3.67358 17.1875 4.125 17.1875H6.1875V17.875H4.8125C4.35666 17.875 3.91949 18.0561 3.59716 18.3784C3.27483 18.7007 3.09375 19.1379 3.09375 19.5938C3.09375 20.0496 3.27483 20.4868 3.59716 20.8091C3.91949 21.1314 4.35666 21.3125 4.8125 21.3125H8.9375C9.27158 21.3115 9.59818 21.2135 9.87765 21.0304C10.1571 20.8473 10.3774 20.5871 10.5119 20.2812H14.7744C15.2103 20.2766 15.6353 20.1444 15.9971 19.9012C16.3588 19.6579 16.6415 19.3142 16.8103 18.9122C16.9792 18.5103 17.0267 18.0678 16.9471 17.6391C16.8676 17.2105 16.6643 16.8146 16.3625 16.5C16.1578 16.2843 15.9115 16.1122 15.6386 15.9941C15.3657 15.8759 15.0718 15.8142 14.7744 15.8125H7.5625V15.0838C8.58981 14.9676 9.57165 14.596 10.4183 14.0027C11.265 13.4094 11.9495 12.6135 12.4094 11.6875ZM8.59375 2.75C8.59375 2.93234 8.52132 3.1072 8.39239 3.23614C8.26345 3.36507 8.08859 3.4375 7.90625 3.4375H5.84375C5.66141 3.4375 5.48655 3.36507 5.35761 3.23614C5.22868 3.1072 5.15625 2.93234 5.15625 2.75C5.15625 2.56766 5.22868 2.3928 5.35761 2.26386C5.48655 2.13493 5.66141 2.0625 5.84375 2.0625H8.59375V2.75ZM4.125 15.8125C3.78862 15.8117 3.45754 15.7286 3.16062 15.5706C2.8637 15.4125 2.60995 15.1842 2.42148 14.9056C2.23302 14.6269 2.11557 14.3064 2.07936 13.972C2.04315 13.6376 2.08929 13.2994 2.21375 12.9869C3.22449 14.1645 4.64493 14.914 6.1875 15.0838V15.8125H4.125ZM8.9375 19.9375H4.8125C4.72133 19.9375 4.6339 19.9013 4.56943 19.8368C4.50497 19.7724 4.46875 19.6849 4.46875 19.5938C4.46875 19.5026 4.50497 19.4151 4.56943 19.3507C4.6339 19.2862 4.72133 19.25 4.8125 19.25H8.9375C9.02867 19.25 9.1161 19.2862 9.18057 19.3507C9.24503 19.4151 9.28125 19.5026 9.28125 19.5938C9.28125 19.6849 9.24503 19.7724 9.18057 19.8368C9.1161 19.9013 9.02867 19.9375 8.9375 19.9375ZM14.7744 17.1875C14.8873 17.1863 14.9992 17.2082 15.1033 17.2519C15.2073 17.2957 15.3013 17.3603 15.3794 17.4419C15.4603 17.5204 15.5245 17.6145 15.5682 17.7185C15.6119 17.8224 15.6342 17.9341 15.6337 18.0469C15.6337 18.2748 15.5432 18.4934 15.382 18.6545C15.2209 18.8157 15.0023 18.9062 14.7744 18.9062H10.5119C10.3774 18.6004 10.1571 18.3402 9.87765 18.1571C9.59818 17.974 9.27158 17.876 8.9375 17.875H7.5625V17.1875H14.7744ZM6.875 13.75C5.59865 13.75 4.37457 13.243 3.47205 12.3405C2.56953 11.4379 2.0625 10.2139 2.0625 8.9375V8.25H11.6875V8.9375C11.6875 10.2139 11.1805 11.4379 10.278 12.3405C9.37543 13.243 8.15135 13.75 6.875 13.75Z" fill="white"/>
<path d="M6.1875 8.9375H4.125V10.3125H6.1875V8.9375Z" fill="white"/>
<path d="M9.625 8.9375H7.5625V10.3125H9.625V8.9375Z" fill="white"/>
</g>
<defs>
<clipPath id="clip0_434_1064">
<rect width="22" height="22" fill="white"/>
</clipPath>
</defs>
</svg>
