<svg width="32" height="32" viewBox="0 0 32 32" fill="none" xmlns="http://www.w3.org/2000/svg">
<path d="M30.63 4.62C30.5158 4.52573 30.3822 4.458 30.2386 4.42168C30.0951 4.38536 29.9453 4.38137 29.8 4.41C21.24 6.17 16.92 1.52 16.74 1.32C16.6462 1.21524 16.5314 1.13145 16.403 1.07408C16.2746 1.01671 16.1356 0.987061 15.995 0.987061C15.8544 0.987061 15.7154 1.01671 15.587 1.07408C15.4586 1.13145 15.3438 1.21524 15.25 1.32C15.25 1.37 10.81 6.18 2.25001 4.41C2.10303 4.37996 1.95119 4.38338 1.80571 4.42C1.66024 4.45662 1.52486 4.52549 1.40962 4.62153C1.29438 4.71756 1.20222 4.8383 1.13997 4.97478C1.07772 5.11127 1.04697 5.26001 1.05001 5.41V13.73C1.03018 17.9066 2.51504 21.9506 5.23285 25.122C7.95067 28.2934 11.7196 30.38 15.85 31H16.15C20.2929 30.3905 24.0765 28.3057 26.8048 25.129C29.5332 21.9524 31.0229 17.8974 31 13.71V5.39C30.999 5.24229 30.9653 5.09663 30.9014 4.9635C30.8374 4.83036 30.7447 4.71305 30.63 4.62ZM29 13.71C29.0207 17.3923 27.7205 20.9601 25.3352 23.7655C22.9499 26.571 19.6378 28.4282 16 29C12.3623 28.4282 9.05012 26.571 6.66484 23.7655C4.27956 20.9601 2.97927 17.3923 3.00001 13.71V6.59C10 7.59 14.35 4.76 16 3.36C17.65 4.76 22 7.63 29 6.59V13.71Z" fill="white"/>
<path d="M25.31 8.21002C19.69 9.30002 16.85 6.44002 16.73 6.31002C16.6359 6.2113 16.5226 6.13287 16.3971 6.07956C16.2715 6.02624 16.1364 5.99918 16 6.00002C15.8636 5.99918 15.7285 6.02624 15.603 6.07956C15.4774 6.13287 15.3641 6.2113 15.27 6.31002C15.16 6.43002 12.32 9.31002 6.69001 8.21002C6.54375 8.18169 6.39301 8.18639 6.2488 8.2238C6.10459 8.2612 5.97056 8.33035 5.8565 8.42619C5.74245 8.52204 5.65125 8.64216 5.58957 8.77777C5.52789 8.91338 5.4973 9.06106 5.50001 9.21002V14C5.50212 16.9098 6.54929 19.722 8.4508 21.9246C10.3523 24.1271 12.9817 25.5734 15.86 26H16.14C19.0184 25.5734 21.6477 24.1271 23.5492 21.9246C25.4507 19.722 26.4979 16.9098 26.5 14V9.19002C26.5027 9.04106 26.4721 8.89338 26.4105 8.75777C26.3488 8.62216 26.2576 8.50204 26.1435 8.40619C26.0295 8.31035 25.8954 8.2412 25.7512 8.2038C25.607 8.1664 25.4563 8.16169 25.31 8.19002V8.21002ZM24.5 14C24.5025 16.405 23.6484 18.7323 22.0908 20.5647C20.5333 22.3972 18.374 23.615 16 24C13.626 23.615 11.4668 22.3972 9.90918 20.5647C8.3516 18.7323 7.49752 16.405 7.50001 14V10.36C10.4854 10.8195 13.5327 10.1025 16 8.36002C18.4678 10.1015 21.5146 10.8184 24.5 10.36V14Z" fill="white"/>
<path d="M17 12H15V15H12V17H15V20H17V17H20V15H17V12Z" fill="white"/>
</svg>
